<?xml version="1.0" encoding="UTF-8"?>
<svg xmlns="http://www.w3.org/2000/svg" xmlns:xlink="http://www.w3.org/1999/xlink" width="32px" height="32px" viewBox="0 0 32 32" version="1.1">
<g id="surface1">
<path style="fill-rule:nonzero;fill:rgb(22.352941%,25.882353%,25.098039%);fill-opacity:1;stroke-width:0.384;stroke-linecap:butt;stroke-linejoin:miter;stroke:rgb(0%,0%,0%);stroke-opacity:1;stroke-miterlimit:4;" d="M 32 2.476562 C 32.273438 2.476562 32.460938 2.984375 32.460938 2.984375 L 41.265625 21.742188 L 61.992188 24.914062 L 47 40.296875 L 50.539062 61.992188 L 32 51.742188 L 13.460938 61.992188 L 17 40.296875 L 2 24.914062 L 22.726562 21.742188 L 31.523438 3 C 31.523438 3 31.71875 2.476562 32 2.476562 M 32 0 C 31.226562 0 30.515625 0.445312 30.1875 1.148438 L 21.375 19.929688 L 1.695312 22.9375 C 0.953125 23.046875 0.34375 23.570312 0.101562 24.28125 C -0.132812 24.984375 0.046875 25.773438 0.570312 26.3125 L 14.859375 40.96875 L 11.484375 61.671875 C 11.359375 62.429688 11.679688 63.1875 12.304688 63.625 C 12.648438 63.867188 13.054688 63.992188 13.453125 63.992188 C 13.789062 63.992188 14.125 63.90625 14.421875 63.742188 L 32 54.023438 L 49.570312 63.742188 C 49.867188 63.90625 50.203125 63.992188 50.539062 63.992188 C 50.9375 63.992188 51.34375 63.867188 51.6875 63.625 C 52.3125 63.1875 52.632812 62.429688 52.507812 61.671875 L 49.132812 40.96875 L 63.429688 26.3125 C 63.945312 25.773438 64.132812 24.984375 63.890625 24.28125 C 63.65625 23.570312 63.039062 23.046875 62.296875 22.9375 L 42.625 19.929688 L 33.8125 1.148438 C 33.476562 0.445312 32.773438 0 32 0 Z M 32 0 " transform="matrix(0.5,0,0,0.5,0,0)"/>
<path style="fill-rule:nonzero;fill:rgb(100%,91.764706%,58.039216%);fill-opacity:1;stroke-width:0.384;stroke-linecap:butt;stroke-linejoin:miter;stroke:rgb(0%,0%,0%);stroke-opacity:1;stroke-miterlimit:4;" d="M 32 2.476562 C 32.273438 2.476562 32.460938 2.984375 32.460938 2.984375 L 41.265625 21.742188 L 61.992188 24.914062 L 47 40.296875 L 50.539062 61.992188 L 32 51.742188 L 13.460938 61.992188 L 17 40.296875 L 2 24.914062 L 22.726562 21.742188 L 31.523438 3 C 31.523438 3 31.71875 2.476562 32 2.476562 " transform="matrix(0.5,0,0,0.5,0,0)"/>
</g>
</svg>
